# xmcd CD database file
#
# Track frame offsets:
#	225
#	19715
#	40412
#	80060
#	167035
#	191182
#	250150
#
# Disc length: 4720 seconds
#
# Revision: 8
# Processed by: cddbd v1.5.2PL0 Copyright (c) Steve Scherf et al.
# Submitted via: CDex 1.51
#
DISCID=5a126d07
DTITLE=The Allman Brothers Band - The Allman Brothers Band At Fillmore East
DYEAR=1971
DGENRE=Southern Rock
TTITLE0=Statesboro Blues
TTITLE1=Done Somebody Wrong
TTITLE2=Stormy Monday
TTITLE3=You Don't Love Me
TTITLE4=Hot 'Lanta
TTITLE5=In Memory Of Elizabeth Reed
TTITLE6=Whipping Post
EXTD=The Allman Brothers Band is:\nDuane Allman: Lead and Slide guitars\nGregg Allman: Organ, Piano, and Vocals\nDickey Betts: Lead Guitar\nBerry Oakley: Bass Guitar\nJai Johanny Johanson: Drums, Congas, and Timbales\nButchTrucks: Drums and Tympani\n\nSp
EXTD=ecial guest - Thom Douchette: Harmonica\n\nProcuded by Tom Dowd YEAR: 1971
EXTT0=
EXTT1=
EXTT2=
EXTT3=
EXTT4=
EXTT5=
EXTT6=
PLAYORDER=
